<svg width="30" height="30" viewBox="0 0 30 30" fill="none" xmlns="http://www.w3.org/2000/svg">
<rect width="30" height="30" rx="15" fill="#2B2B33"/>
<path d="M15.0001 20.0868C17.8096 20.0868 20.0872 17.8093 20.0872 14.9998C20.0872 12.1903 17.8096 9.91272 15.0001 9.91272C12.1906 9.91272 9.91309 12.1903 9.91309 14.9998C9.91309 17.8093 12.1906 20.0868 15.0001 20.0868Z" stroke="#228BE5" stroke-width="2" stroke-linejoin="round"/>
<path d="M15.0003 7.95655C15.5405 7.95655 15.9785 7.51856 15.9785 6.97828C15.9785 6.43799 15.5405 6 15.0003 6C14.46 6 14.022 6.43799 14.022 6.97828C14.022 7.51856 14.46 7.95655 15.0003 7.95655Z" fill="#2997F6"/>
<path d="M20.6741 10.3042C21.2144 10.3042 21.6524 9.86622 21.6524 9.32593C21.6524 8.78565 21.2144 8.34766 20.6741 8.34766C20.1338 8.34766 19.6958 8.78565 19.6958 9.32593C19.6958 9.86622 20.1338 10.3042 20.6741 10.3042Z" fill="#2997F6"/>
<path d="M23.0222 15.978C23.5625 15.978 24.0005 15.54 24.0005 14.9998C24.0005 14.4595 23.5625 14.0215 23.0222 14.0215C22.4819 14.0215 22.0439 14.4595 22.0439 14.9998C22.0439 15.54 22.4819 15.978 23.0222 15.978Z" fill="#2997F6"/>
<path d="M20.6741 21.6521C21.2144 21.6521 21.6524 21.2141 21.6524 20.6738C21.6524 20.1336 21.2144 19.6956 20.6741 19.6956C20.1338 19.6956 19.6958 20.1336 19.6958 20.6738C19.6958 21.2141 20.1338 21.6521 20.6741 21.6521Z" fill="#2997F6"/>
<path d="M15.0003 24C15.5405 24 15.9785 23.562 15.9785 23.0217C15.9785 22.4815 15.5405 22.0435 15.0003 22.0435C14.46 22.0435 14.022 22.4815 14.022 23.0217C14.022 23.562 14.46 24 15.0003 24Z" fill="#2997F6"/>
<path d="M9.32593 21.6521C9.86622 21.6521 10.3042 21.2141 10.3042 20.6738C10.3042 20.1336 9.86622 19.6956 9.32593 19.6956C8.78565 19.6956 8.34766 20.1336 8.34766 20.6738C8.34766 21.2141 8.78565 21.6521 9.32593 21.6521Z" fill="#2997F6"/>
<path d="M6.97828 15.978C7.51856 15.978 7.95655 15.54 7.95655 14.9998C7.95655 14.4595 7.51856 14.0215 6.97828 14.0215C6.43799 14.0215 6 14.4595 6 14.9998C6 15.54 6.43799 15.978 6.97828 15.978Z" fill="#2997F6"/>
<path d="M9.32593 10.3042C9.86622 10.3042 10.3042 9.86622 10.3042 9.32593C10.3042 8.78565 9.86622 8.34766 9.32593 8.34766C8.78565 8.34766 8.34766 8.78565 8.34766 9.32593C8.34766 9.86622 8.78565 10.3042 9.32593 10.3042Z" fill="#2997F6"/>
</svg>
