<svg width="30" height="30" viewBox="0 0 30 30" fill="none" xmlns="http://www.w3.org/2000/svg">
<g clip-path="url(#clip0_17855_32412)">
<path d="M30 15C30 6.71573 23.2843 0 15 0C6.71573 0 0 6.71573 0 15C0 23.2843 6.71573 30 15 30C23.2843 30 30 23.2843 30 15Z" fill="#F6F6F6"/>
<path d="M27 15C27 8.37258 21.6274 3 15 3C8.37258 3 3 8.37258 3 15C3 21.6274 8.37258 27 15 27C21.6274 27 27 21.6274 27 15Z" fill="white"/>
<path d="M27 15C27 8.37258 21.6274 3 15 3C8.37258 3 3 8.37258 3 15C3 21.6274 8.37258 27 15 27C21.6274 27 27 21.6274 27 15Z" stroke="#EAEAEA" stroke-width="0.8"/>
<path d="M5.00001 11L7.66667 7.00004L8.33334 7.44448L5.66667 11.4445L5.00001 11ZM6.00001 11.6667L8.66667 7.66671L9.33334 8.11115L6.66667 12.1111L6.00001 11.6667ZM7.00001 12.3334L9.66667 8.33337L10.3333 8.77782L7.66667 12.7778L7.00001 12.3334Z" fill="black"/>
<path d="M19.6666 20.7778L22.3333 16.7778L23 17.2223L20.3333 21.2223L19.6666 20.7778ZM20.6666 21.4445L23.3333 17.4445L24 17.889L21.3333 21.889L20.6666 21.4445ZM21.6666 22.1112L24.3333 18.1112L25 18.5556L22.3333 22.5556L21.6666 22.1112Z" fill="black"/>
<path fill-rule="evenodd" clip-rule="evenodd" d="M23.8889 20.9444L20.5555 18.7222L20.7777 18.3889L24.1111 20.6111L23.8889 20.9444Z" fill="white"/>
<path d="M11 12.1111C11.7073 11.0502 12.807 10.3138 14.0572 10.0637C15.3074 9.81369 16.6058 10.0705 17.6667 10.7778C18.7275 11.485 19.464 12.5847 19.714 13.835C19.9641 15.0852 19.7072 16.3836 19 17.4444L11 12.1111Z" fill="#CD2E3A"/>
<path d="M11 12.1111C10.2928 13.172 10.0359 14.4703 10.2859 15.7206C10.536 16.9708 11.2725 18.0705 12.3333 18.7778C13.3942 19.485 14.6926 19.7419 15.9428 19.4918C17.193 19.2418 18.2927 18.5053 19 17.4444C19.3536 16.914 19.482 16.2648 19.357 15.6397C19.232 15.0146 18.8638 14.4647 18.3333 14.1111C17.8029 13.7575 17.1537 13.6291 16.5286 13.7541C15.9035 13.8791 15.3536 14.2473 15 14.7778L11 12.1111Z" fill="#0047A0"/>
<path d="M14.9999 14.7777C15.7363 13.6732 15.4378 12.1808 14.3332 11.4444C13.2287 10.708 11.7363 11.0065 10.9999 12.1111C10.2635 13.2156 10.562 14.708 11.6666 15.4444C12.7711 16.1808 14.2635 15.8823 14.9999 14.7777Z" fill="#CD2E3A"/>
<path d="M7.66668 22.5555L5.00001 18.5555L5.66668 18.1111L8.33335 22.1111L7.66668 22.5555ZM8.66668 21.8889L6.00001 17.8889L6.66668 17.4444L9.33335 21.4444L8.66668 21.8889ZM9.66668 21.2222L7.00001 17.2222L7.66668 16.7778L10.3333 20.7777L9.66668 21.2222Z" fill="black"/>
<path d="M22.3333 12.7778L19.6666 8.77776L20.3333 8.33331L23 12.3333L22.3333 12.7778ZM23.3333 12.1111L20.6666 8.11109L21.3333 7.66665L24 11.6666L23.3333 12.1111ZM24.3333 11.4444L21.6666 7.44442L22.3333 6.99998L25 11L24.3333 11.4444Z" fill="black"/>
<path fill-rule="evenodd" clip-rule="evenodd" d="M8.27782 19.5001L7.27782 20.1668L7.0556 19.8334L8.0556 19.1668L8.27782 19.5001ZM21.9445 10.389L20.7778 11.1668L20.5556 10.8334L21.7223 10.0557L21.9445 10.389ZM23.9445 9.05566L22.9445 9.72232L22.7223 9.38899L23.7223 8.72232L23.9445 9.05566Z" fill="white"/>
</g>
<defs>
<clipPath id="clip0_17855_32412">
<rect width="30" height="30" fill="white"/>
</clipPath>
</defs>
</svg>
