<svg width="30" height="30" viewBox="0 0 30 30" fill="none" xmlns="http://www.w3.org/2000/svg">
<g clip-path="url(#clip0_17855_32398)">
<path d="M30 15C30 6.71573 23.2843 0 15 0C6.71573 0 0 6.71573 0 15C0 23.2843 6.71573 30 15 30C23.2843 30 30 23.2843 30 15Z" fill="#F6F6F6"/>
<path d="M27 15C27 8.37258 21.6274 3 15 3C8.37258 3 3 8.37258 3 15C3 21.6274 8.37258 27 15 27C21.6274 27 27 21.6274 27 15Z" fill="#FF0000"/>
<path fill-rule="evenodd" clip-rule="evenodd" d="M11.534 9.08045L12.9586 12.1175L16.1469 12.6054L13.8394 14.9692L14.3856 18.3087L11.534 16.7328L8.67996 18.3087L9.22644 14.9692L6.91869 12.6054L10.107 12.1175L11.534 9.08045ZM23.126 16.0619L23.5285 16.9182L24.4286 17.0548L23.7774 17.7208L23.9309 18.6623L23.126 18.2184L22.3234 18.6623L22.4772 17.7208L21.8258 17.0548L22.7259 16.9182L23.126 16.0619ZM20.0819 7.99731L20.1208 8.94388L20.8966 9.41705L20.0403 9.78301L19.816 10.71L19.2475 9.98794L18.3327 10.088L18.8378 9.27798L18.4963 8.41206L19.3794 8.63402L20.0819 7.99731ZM24.2333 11.8272L23.7162 12.6201L24.0724 13.4568L23.1651 13.2542L22.4453 13.8812L22.399 12.9616L21.5964 12.5128L22.4795 12.1469L22.704 11.2443L23.2942 11.9345L24.2333 11.8272ZM21.1163 21.0701L20.2478 21.4456L20.082 22.341L19.4355 21.6701L18.4889 21.792L18.9574 21.0041L18.5403 20.1845L19.4746 20.3676L20.1625 19.738L20.2721 20.6407L21.1163 21.0701Z" fill="#FFFF00"/>
<path d="M27 15C27 8.37258 21.6274 3 15 3C8.37258 3 3 8.37258 3 15C3 21.6274 8.37258 27 15 27C21.6274 27 27 21.6274 27 15Z" stroke="#EAEAEA" stroke-width="0.8"/>
</g>
<defs>
<clipPath id="clip0_17855_32398">
<rect width="30" height="30" fill="white"/>
</clipPath>
</defs>
</svg>
